<?xml version="1.0" encoding="UTF-8" standalone="no"?>
<svg width="17px" height="17px" viewBox="0 0 17 17" version="1.1" xmlns="http://www.w3.org/2000/svg" xmlns:xlink="http://www.w3.org/1999/xlink">
    <!-- Generator: Sketch 3.7 (28169) - http://www.bohemiancoding.com/sketch -->
    <title>Combined Shape</title>
    <desc>Created with Sketch.</desc>
    <defs></defs>
    <g id="Symbols" stroke="none" stroke-width="1" fill="none" fill-rule="evenodd">
        <g id="Footer" transform="translate(-359.000000, -3.000000)" fill="#606060">
            <g id="Content">
                <g id="Social-Media" transform="translate(355.000000, 0.000000)">
                    <path d="M23.3846154,25.1590909 L23.3846154,1.84090909 L23.3846154,25.1590909 L0,25.1590909 L23.3846154,25.1590909 Z M8.0070306,19.2306626 L4.64643507,19.2306626 L4.64643507,8.44663032 L8.0070306,8.44663032 L8.0070306,19.2306626 Z M6.30598842,7.12275935 C5.24456576,7.12275935 4.5582713,6.37291056 4.5582713,5.44551136 C4.5582713,4.49915048 5.26531017,3.77171096 6.34920596,3.77171096 C7.43310174,3.77171096 8.09692308,4.49915048 8.11766749,5.44551136 C8.11766749,6.37291056 7.43310174,7.12275935 6.30598842,7.12275935 Z M20.2808106,19.2306626 L16.9202151,19.2306626 L16.9202151,13.2542815 C16.9202151,11.8631827 16.4327213,10.9185456 15.2174442,10.9185456 C14.2891315,10.9185456 13.7376758,11.5580718 13.4939289,12.173465 C13.4040364,12.3923864 13.3815633,12.7026686 13.3815633,13.0112271 L13.3815633,19.2289388 L10.019239,19.2289388 L10.019239,11.885592 C10.019239,10.5393118 9.97602151,9.41367669 9.93107527,8.44490652 L12.8508519,8.44490652 L13.0047064,9.94288032 L13.0721257,9.94288032 C13.5146733,9.23957386 14.5985691,8.20185209 16.4119768,8.20185209 C18.6229859,8.20185209 20.2808106,9.6791404 20.2808106,12.8543622 L20.2808106,19.2306626 Z" id="Combined-Shape"></path>
                </g>
            </g>
        </g>
    </g>
</svg>