
<svg width="35px" height="35px" viewBox="0 0 35 35" version="1.1" xmlns="http://www.w3.org/2000/svg" xmlns:xlink="http://www.w3.org/1999/xlink">
    <!-- Generator: Sketch 3.7 (28169) - http://www.bohemiancoding.com/sketch -->
    <desc>Created with Sketch.</desc>
    <defs></defs>
    <path d="M34.0445083,34.0548482 L34.0445083,0 L34.0445083,34.0548482 L0,34.0548482 L34.0445083,34.0548482 Z M11.657041,25.3967234 L6.76451567,25.3967234 L6.76451567,9.64727161 L11.657041,9.64727161 L11.657041,25.3967234 Z M9.18057754,7.71383507 C7.63530463,7.71383507 6.63616238,6.61872453 6.63616238,5.26431195 C6.63616238,3.88220692 7.66550541,2.81982382 9.24349582,2.81982382 C10.8214862,2.81982382 11.787911,3.88220692 11.8181118,5.26431195 C11.8181118,6.61872453 10.8214862,7.71383507 9.18057754,7.71383507 Z M29.5258319,25.3967234 L24.6333066,25.3967234 L24.6333066,16.6685666 C24.6333066,14.6369477 23.9235884,13.2573602 22.1543265,13.2573602 C20.8028419,13.2573602 20.0000046,14.191351 19.6451455,15.0900969 C19.5142755,15.4098188 19.481558,15.862968 19.481558,16.3135997 L19.481558,25.3942059 L14.586516,25.3942059 L14.586516,14.6696751 C14.586516,12.7035111 14.5235977,11.0595866 14.4581627,9.64475412 L18.7089216,9.64475412 L18.9329106,11.8324577 L19.0310631,11.8324577 C19.6753463,10.8053195 21.2533367,9.28978725 23.8933877,9.28978725 C27.1122868,9.28978725 29.5258319,11.4472809 29.5258319,16.0845076 L29.5258319,25.3967234 Z" id="Combined-Shape" stroke="none" fill="#606060" fill-rule="evenodd"></path>
</svg>