<?xml version="1.0" encoding="UTF-8" standalone="no"?>
<svg width="273px" height="29px" viewBox="0 0 273 29" version="1.1" xmlns="http://www.w3.org/2000/svg" xmlns:xlink="http://www.w3.org/1999/xlink">
    <!-- Generator: Sketch 3.7 (28169) - http://www.bohemiancoding.com/sketch -->
    <title>Group</title>
    <desc>Created with Sketch.</desc>
    <defs></defs>
    <g id="Page-1" stroke="none" stroke-width="1" fill="none" fill-rule="evenodd">
        <g id="WGH" transform="translate(-506.000000, -953.000000)" fill="#00397A">
            <g id="Header" transform="translate(0.000000, 928.000000)">
                <g id="Navigation" transform="translate(38.000000, 24.000000)">
                    <g id="Logo">
                        <g id="Group" transform="translate(468.000000, 1.000000)">
                            <path d="M81,28.77987 L82.2563269,28.77987 L82.2563269,25.1522133 L87.5778345,25.1522133 L87.5778345,28.77987 L88.8350784,28.77987 L88.8350784,21.161159 L87.5778345,21.161159 L87.5778345,24.2413491 L82.2563269,24.2413491 L82.2563269,21.161159 L81,21.161159 L81,28.77987 Z M96.7967066,21 C93.955757,21 92.1253712,22.8233083 92.1253712,24.9381247 C92.1253712,27.1817102 93.9053206,28.9410289 96.7591085,28.9410289 C99.7247737,28.9410289 101.418523,27.0956008 101.418523,24.9491846 C101.418523,22.8233083 99.6257348,21 96.7967066,21 L96.7967066,21 Z M96.7215104,21.8998042 C98.9397986,21.8998042 100.098921,23.3818347 100.098921,24.9705145 C100.098921,26.6239738 98.9645583,28.0404347 96.7967066,28.0404347 C94.6031781,28.0404347 93.444056,26.5481343 93.444056,24.9167948 C93.444056,23.2957252 94.6536146,21.8998042 96.7215104,21.8998042 L96.7215104,21.8998042 Z M106.763873,28.77987 L108.021117,28.77987 L108.021117,22.0720231 L111.384772,22.0720231 L111.384772,21.161159 L103.388296,21.161159 L103.388296,22.0720231 L106.763873,22.0720231 L106.763873,28.77987 Z M120.67884,24.3163987 L115.371088,24.3163987 L115.371088,22.0609632 L120.953031,22.0609632 L120.953031,21.161159 L114.114761,21.161159 L114.114761,28.77987 L121.05207,28.77987 L121.227222,27.8690058 L115.371088,27.8690058 L115.371088,25.2272628 L120.67884,25.2272628 L120.67884,24.3163987 Z M124.292843,28.77987 L130.682687,28.77987 L130.869761,27.8690058 L125.537249,27.8690058 L125.537249,21.161159 L124.292843,21.161159 L124.292843,28.77987 Z M146.716904,24.6063268 L142.64347,24.6063268 L142.64347,25.5171909 L145.510096,25.5171909 L145.510096,25.7423395 C145.510096,27.2456998 144.463768,28.0514946 142.61871,28.0514946 C140.43802,28.0514946 139.254138,26.7306231 139.254138,24.9278547 C139.254138,23.2206757 140.426099,21.8784743 142.64347,21.8784743 C144.363813,21.8784743 145.135949,22.5657699 145.472498,23.2854553 L146.766423,23.2854553 C146.430791,22.1581325 145.298263,21 142.656308,21 C139.702564,21 137.935453,22.7482588 137.935453,24.9918443 C137.935453,27.3641991 139.640207,28.9410289 142.431637,28.9410289 C144.163901,28.9410289 145.073591,28.4694019 145.659572,27.6541272 C145.659572,27.9859251 145.72193,28.5863212 145.758611,28.77987 L146.716904,28.77987 L146.716904,24.6063268 Z M153.894474,25.4958611 C155.451586,25.4958611 155.963287,25.8497788 155.963287,26.9771015 L155.963287,27.22358 C155.963287,27.8674258 155.93761,28.4472821 156.075164,28.77987 L157.344329,28.77987 C157.244373,28.457552 157.244373,27.8137062 157.244373,27.2346399 L157.244373,26.901262 C157.244373,25.5598507 156.448394,25.1846031 155.863331,25.045564 C156.94634,24.7990856 157.480966,24.1441798 157.480966,23.2206757 C157.480966,21.8682044 156.262237,21.161159 154.454777,21.161159 L150.231868,21.161159 L150.231868,28.77987 L151.463435,28.77987 L151.463435,25.4958611 L153.894474,25.4958611 Z M151.463435,22.0396333 L154.180586,22.0396333 C155.513943,22.0396333 156.19988,22.4583306 156.19988,23.2854553 C156.19988,24.1978994 155.513943,24.6165967 154.131067,24.6165967 L151.463435,24.6165967 L151.463435,22.0396333 Z M164.994168,21 C162.153219,21 160.322833,22.8233083 160.322833,24.9381247 C160.322833,27.1817102 162.103699,28.9410289 164.957487,28.9410289 C167.923152,28.9410289 169.615984,27.0956008 169.615984,24.9491846 C169.615984,22.8233083 167.823197,21 164.994168,21 L164.994168,21 Z M164.919889,21.8998042 C167.138177,21.8998042 168.296382,23.3818347 168.296382,24.9705145 C168.296382,26.6239738 167.162937,28.0404347 164.994168,28.0404347 C162.801557,28.0404347 161.642435,26.5481343 161.642435,24.9167948 C161.642435,23.2957252 162.851076,21.8998042 164.919889,21.8998042 L164.919889,21.8998042 Z M172.7944,21.161159 L172.7944,25.5614307 C172.7944,27.9329954 174.324918,28.9410289 176.70552,28.9410289 C179.098043,28.9410289 180.59188,27.9551153 180.59188,25.4753212 L180.59188,21.161159 L179.347474,21.161159 L179.347474,25.4863811 C179.347474,27.375259 178.375426,28.0404347 176.743118,28.0404347 C175.408844,28.0404347 174.038805,27.4929682 174.038805,25.4863811 L174.038805,21.161159 L172.7944,21.161159 Z M184.343437,28.77987 L185.599764,28.77987 L185.599764,25.7320696 L188.54067,25.7320696 C190.510444,25.7320696 191.704413,24.8954649 191.704413,23.4031645 C191.704413,22.1360127 190.6966,21.161159 188.503989,21.161159 L184.343437,21.161159 L184.343437,28.77987 Z M185.599764,22.0609632 L188.366435,22.0609632 C189.76215,22.0609632 190.435248,22.55471 190.435248,23.4142245 C190.435248,24.5202174 189.587915,24.8204154 188.366435,24.8204154 L185.599764,24.8204154 L185.599764,22.0609632 Z" id="Fill-23"></path>
                            <path d="M5.63120112,10.7223042 C6.64404024,8.04569938 8.51561942,3.13556483 8.82447608,1.80407023 L8.8415982,1.80407023 C9.15045486,3.04649596 11.0905225,8.3412719 11.9657261,10.7223042 L13.8544274,10.7223042 L17.9057839,0.221821214 L16.1547181,0.221821214 C15.2452702,2.67717215 13.3394468,7.67580825 12.9614432,9.25805727 L12.9271989,9.25805727 C12.6697086,8.10470042 10.6611525,2.57335301 9.80307097,0.221821214 L8.06912727,0.221821214 C7.1076545,2.76567371 5.18470897,7.80856059 4.84160807,9.28755779 L4.82448595,9.28755779 C4.56699564,7.89762947 2.7296607,2.79517422 1.82021283,0.221821214 L0,0.221821214 L3.79452471,10.7223042 L5.63120112,10.7223042 Z M20.0499999,10.7223042 L21.7839436,10.7223042 L21.7839436,0.221821214 L20.0499999,0.221821214 L20.0499999,10.7223042 Z M26.9014812,10.7223042 L26.9014812,6.43338253 C26.9014812,4.56974394 26.9014812,3.09074674 26.8158706,1.73031893 L26.8501148,1.73031893 C27.7253185,2.9579944 32.4984381,8.62209415 34.3179924,10.7223042 L36.25806,10.7223042 L36.25806,0.221821214 L34.6439711,0.221821214 L34.6439711,4.17035229 C34.6439711,5.8711707 34.626849,7.5424886 34.7473624,8.90348372 L34.7124596,8.90348372 C34.0262578,7.82387817 30.0947561,3.50488865 27.3479733,0.221821214 L25.2880509,0.221821214 L25.2880509,10.7223042 L26.9014812,10.7223042 Z M48.8573045,4.56974394 L41.543526,4.56974394 L41.543526,1.46424694 L49.2346496,1.46424694 L49.2346496,0.221821214 L39.8095824,0.221821214 L39.8095824,10.7223042 L49.3722851,10.7223042 L49.6126533,9.46512823 L41.543526,9.46512823 L41.543526,5.82691992 L48.8573045,5.82691992 L48.8573045,4.56974394 Z M63.2418591,4.96913559 L57.6277801,4.96913559 L57.6277801,6.22631157 L61.5764038,6.22631157 L61.5764038,6.53663435 C61.5764038,8.60734389 60.1341947,9.71644996 57.5935358,9.71644996 C54.5892627,9.71644996 52.9580517,7.89762947 52.9580517,5.41277801 C52.9580517,3.06124622 54.5721406,1.21292521 57.6277801,1.21292521 C59.9972177,1.21292521 61.0614232,2.1592111 61.5250375,3.15031509 L63.3103475,3.15031509 C62.8467333,1.59699928 61.2846693,0 57.6449022,0 C53.5764236,0 51.1384974,2.41053284 51.1384974,5.50184689 C51.1384974,8.77016406 53.4901544,10.9441254 57.3360455,10.9441254 C59.7226053,10.9441254 60.9758126,10.293412 61.7825278,9.16955571 C61.7825278,9.6279484 61.8681384,10.4562322 61.9195047,10.7223042 L63.2418591,10.7223042 L63.2418591,4.96913559 Z M74.4173336,7.5424886 L76.0485446,10.7223042 L77.9372459,10.7223042 L72.4779245,0.221821214 L70.3830993,0.221821214 L65.1470239,10.7223042 L66.932334,10.7223042 L68.5121786,7.5424886 L74.4173336,7.5424886 Z M69.0442814,6.27056235 C70.2803666,3.77152796 71.1042038,1.96689041 71.3616941,1.28667651 L71.3788163,1.28667651 C71.6534287,1.99639093 72.3574111,3.37213631 73.8509866,6.27056235 L69.0442814,6.27056235 Z M85.0508273,6.19681105 C87.1970189,6.19681105 87.9010014,6.68470426 87.9010014,8.23745276 L87.9010014,8.57784337 C87.9010014,9.46512823 87.8667571,10.2639115 88.0551004,10.7223042 L89.8061662,10.7223042 C89.6691893,10.2786618 89.6691893,9.39137693 89.6691893,8.59259363 L89.6691893,8.13420094 C89.6691893,6.28531261 88.570081,5.76791888 87.7633659,5.57559819 C89.2569414,5.23520758 89.9951681,4.33317246 89.9951681,3.06124622 C89.9951681,1.19817495 88.3125907,0.221821214 85.8232982,0.221821214 L80.0037538,0.221821214 L80.0037538,10.7223042 L81.7034533,10.7223042 L81.7034533,6.19681105 L85.0508273,6.19681105 Z M81.7034533,1.43474642 L85.4459531,1.43474642 C87.2826295,1.43474642 88.2269801,2.01114119 88.2269801,3.15031509 C88.2269801,4.40749108 87.2826295,4.98388585 85.3774646,4.98388585 L81.7034533,4.98388585 L81.7034533,1.43474642 Z M93.0455392,10.7223042 L98.0241242,10.7223042 C101.543378,10.7223042 104.290161,8.66634493 104.290161,5.29477594 C104.290161,2.4252831 102.006992,0.221821214 98.0583685,0.221821214 L93.0455392,0.221821214 L93.0455392,10.7223042 Z M94.7794829,1.43474642 L97.8186588,1.43474642 C100.651052,1.44949668 102.470606,2.91374362 102.470606,5.33902672 C102.470606,7.74955955 100.908543,9.49462874 97.6810233,9.49462874 L94.7794829,9.49462874 L94.7794829,1.43474642 Z M108.728082,10.7223042 L108.728082,6.43338253 C108.728082,4.56974394 108.728082,3.09074674 108.642471,1.73031893 L108.676716,1.73031893 C109.551919,2.9579944 114.32438,8.62209415 116.144593,10.7223042 L118.084661,10.7223042 L118.084661,0.221821214 L116.470572,0.221821214 L116.470572,4.17035229 C116.470572,5.8711707 116.45345,7.5424886 116.573963,8.90348372 L116.53906,8.90348372 C115.852859,7.82387817 111.921357,3.50488865 109.174574,0.221821214 L107.114652,0.221821214 L107.114652,10.7223042 L108.728082,10.7223042 Z M130.683247,4.56974394 L123.370127,4.56974394 L123.370127,1.46424694 L131.06125,1.46424694 L131.06125,0.221821214 L121.636183,0.221821214 L121.636183,10.7223042 L131.198886,10.7223042 L131.439254,9.46512823 L123.370127,9.46512823 L123.370127,5.82691992 L130.683247,5.82691992 L130.683247,4.56974394 Z M138.870912,6.19681105 C141.016445,6.19681105 141.720427,6.68470426 141.720427,8.23745276 L141.720427,8.57784337 C141.720427,9.46512823 141.686183,10.2639115 141.875185,10.7223042 L143.626251,10.7223042 C143.488615,10.2786618 143.488615,9.39137693 143.488615,8.59259363 L143.488615,8.13420094 C143.488615,6.28531261 142.390166,5.76791888 141.58345,5.57559819 C143.077026,5.23520758 143.815253,4.33317246 143.815253,3.06124622 C143.815253,1.19817495 142.132675,0.221821214 139.643383,0.221821214 L133.82318,0.221821214 L133.82318,10.7223042 L135.522879,10.7223042 L135.522879,6.19681105 L138.870912,6.19681105 Z M135.522879,1.43474642 L139.265379,1.43474642 C141.102714,1.43474642 142.046406,2.01114119 142.046406,3.15031509 C142.046406,4.40749108 141.102714,4.98388585 139.196891,4.98388585 L135.522879,4.98388585 L135.522879,1.43474642 Z M155.35095,9.71644996 C153.99501,9.71644996 153.067782,8.87341588 153.067782,7.86812895 C153.067782,7.17259747 153.342394,6.41863227 155.042093,5.69416759 L158.338101,8.16370146 C157.222529,9.33237589 156.535669,9.71644996 155.35095,9.71644996 L155.35095,9.71644996 Z M162.098382,3.88953004 L159.299574,7.11359643 L156.604157,5.10245524 C158.441492,4.3184222 159.282452,3.62345804 159.282452,2.47010119 C159.282452,1.27192625 158.303857,0 156.072055,0 C153.943644,0 152.707559,1.22767547 152.707559,2.60285353 C152.707559,3.59395752 153.273906,4.28892168 154.115523,4.98388585 C152.141212,5.93073906 151.420107,6.7437053 151.420107,8.00088129 C151.420107,9.36187641 152.569923,10.9293752 155.248217,10.9293752 C157.171163,10.9293752 158.235368,10.1305919 159.368721,8.9477345 L161.7375,10.7223042 L164.141182,10.7223042 L160.347316,7.89762947 L163.986424,3.88953004 L162.098382,3.88953004 Z M156.03781,1.02060451 C157.325262,1.02060451 157.754632,1.81938781 157.754632,2.47010119 C157.754632,3.23881665 157.188285,3.77152796 155.69471,4.3921735 C154.68187,3.7119596 154.303867,3.16506535 154.303867,2.51435197 C154.303867,1.67131789 154.956483,1.02060451 156.03781,1.02060451 L156.03781,1.02060451 Z M172.174748,10.7223042 L173.908692,10.7223042 L173.908692,5.72366811 L181.239592,5.72366811 L181.239592,10.7223042 L182.973536,10.7223042 L182.973536,0.221821214 L181.239592,0.221821214 L181.239592,4.46649212 L173.908692,4.46649212 L173.908692,0.221821214 L172.174748,0.221821214 L172.174748,10.7223042 Z M194.311012,7.5424886 L195.941564,10.7223042 L197.830266,10.7223042 L192.370944,0.221821214 L190.276119,0.221821214 L185.040044,10.7223042 L186.826012,10.7223042 L188.405198,7.5424886 L194.311012,7.5424886 Z M188.937301,6.27056235 C190.173386,3.77152796 190.997224,1.96689041 191.254714,1.28667651 L191.271836,1.28667651 C191.546449,1.99639093 192.250431,3.37213631 193.744007,6.27056235 L188.937301,6.27056235 Z M211.52796,10.7223042 L213.210537,10.7223042 L213.210537,0.221821214 L210.721245,0.221821214 C209.175644,3.43113735 207.064356,7.63155747 206.498009,8.93298424 L206.480887,8.93298424 C206.120005,7.95663051 204.04296,3.65295856 202.360383,0.221821214 L199.888213,0.221821214 L199.888213,10.7223042 L201.485179,10.7223042 L201.485179,6.46288305 C201.485179,4.68831333 201.416032,2.47010119 201.3133,1.25717599 L201.330422,1.25717599 C202.00016,2.91374362 204.317573,7.77906007 205.639269,10.7223042 L207.132844,10.7223042 C208.866788,7.11359643 210.995857,2.839425 211.596448,1.25717599 L211.613571,1.25717599 C211.545082,2.33678154 211.52796,4.22992065 211.52796,6.19681105 L211.52796,10.7223042 Z M228.401807,10.7223042 L230.084384,10.7223042 L230.084384,0.221821214 L227.595092,0.221821214 C226.049491,3.43113735 223.938203,7.63155747 223.371856,8.93298424 L223.354734,8.93298424 C222.993852,7.95663051 220.916807,3.65295856 219.23423,0.221821214 L216.76206,0.221821214 L216.76206,10.7223042 L218.359026,10.7223042 L218.359026,6.46288305 C218.359026,4.68831333 218.289879,2.47010119 218.187147,1.25717599 L218.204269,1.25717599 C218.874007,2.91374362 221.19142,7.77906007 222.513116,10.7223042 L224.006691,10.7223042 C225.740635,7.11359643 227.869704,2.839425 228.470296,1.25717599 L228.487418,1.25717599 C228.418929,2.33678154 228.401807,4.22992065 228.401807,6.19681105 L228.401807,10.7223042 Z M239.354694,0 C235.440315,0 232.916778,2.51435197 232.916778,5.42752827 C232.916778,8.51884233 235.371826,10.9441254 239.303328,10.9441254 C243.388928,10.9441254 245.723463,8.40027293 245.723463,5.44227853 C245.723463,2.51435197 243.251951,0 239.354694,0 L239.354694,0 Z M239.251303,1.24242573 C242.307601,1.24242573 243.903909,3.28306743 243.903909,5.47234637 C243.903909,7.74955955 242.341845,9.7016997 239.354694,9.7016997 C236.333299,9.7016997 234.736332,7.64630773 234.736332,5.39802776 C234.736332,3.16506535 236.401787,1.24242573 239.251303,1.24242573 L239.251303,1.24242573 Z M250.161385,10.7223042 L250.161385,6.43338253 C250.161385,4.56974394 250.161385,3.09074674 250.075774,1.73031893 L250.110018,1.73031893 C250.985222,2.9579944 255.757683,8.62209415 257.577896,10.7223042 L259.517305,10.7223042 L259.517305,0.221821214 L257.903875,0.221821214 L257.903875,4.17035229 C257.903875,5.8711707 257.886752,7.5424886 258.006607,8.90348372 L257.972363,8.90348372 C257.285503,7.82387817 253.35466,3.50488865 250.607877,0.221821214 L248.547296,0.221821214 L248.547296,10.7223042 L250.161385,10.7223042 Z M262.11855,7.66105799 C262.530139,9.59844788 264.246961,10.9441254 267.64636,10.9441254 C271.320371,10.9441254 272.865313,9.509379 272.865313,7.83862843 C272.865313,6.37438149 272.16133,5.20570706 267.766873,4.55499368 C264.985187,4.15560203 264.487329,3.60870778 264.487329,2.75092345 C264.487329,1.70081841 265.620681,1.18342469 267.371747,1.18342469 C269.94665,1.18342469 270.461631,2.12971058 270.719121,2.85417526 L272.453065,2.85417526 C272.316088,1.78931997 271.388859,0 267.423113,0 C264.761941,0 262.736263,1.05010503 262.736263,2.89899336 C262.736263,4.33317246 263.612125,5.32427646 267.268356,5.85642044 C270.427387,6.31481313 271.097125,6.95077625 271.097125,7.98613103 C271.097125,8.96248476 270.169896,9.76126806 267.766873,9.76126806 C265.380313,9.76126806 264.33323,8.90348372 263.886738,7.66105799 L262.11855,7.66105799 Z" id="Fill-25"></path>
                        </g>
                    </g>
                </g>
            </g>
        </g>
    </g>
</svg>