
<svg width="67px" height="30px" viewBox="0 0 67 30" version="1.1" xmlns="http://www.w3.org/2000/svg" xmlns:xlink="http://www.w3.org/1999/xlink">
    <!-- Generator: Sketch 3.7 (28169) - http://www.bohemiancoding.com/sketch -->
    <desc>Created with Sketch.</desc>
    <defs></defs>
    <path d="M65.5410588,2.88200682 L66.7400697,0.859575 L57.3015952,0.859575 L56.1009236,2.88200682 L65.5410588,2.88200682 Z M54.7507908,2.88200682 L55.9547838,0.859575 L46.2290117,0.859575 L45.0250188,2.88200682 L54.7507908,2.88200682 Z M39.0457407,2.88200682 C37.8151768,1.1607 35.8040934,0.0350068182 33.5239799,0.0350068182 C31.248018,0.0350068182 29.2369346,1.1607 28.0072011,2.88200682 L39.0457407,2.88200682 Z M22.030414,2.88200682 C21.2947328,1.64764318 20.8255907,0.859575 20.8255907,0.859575 L11.1048007,0.859575 C11.1048007,0.859575 11.5747731,1.65096136 12.3054723,2.88200682 L22.030414,2.88200682 Z M11.0466769,2.88200682 L9.82524679,0.859575 L0.175035666,0.859575 L1.37985896,2.88200682 L11.0466769,2.88200682 Z M2.5481473,4.84471136 L4.06766944,7.39556364 L13.772683,7.39556364 L12.231572,4.84471136 L2.5481473,4.84471136 Z M14.9575781,9.35743864 L5.23595778,9.35743864 L6.75547992,11.9082909 L16.4986891,11.9082909 L14.9575781,9.35743864 Z M17.6835843,13.8709955 L7.92376826,13.8709955 L9.44329041,16.4218477 L19.2246952,16.4218477 L17.6835843,13.8709955 Z M34.4888349,18.3837227 L10.6115787,18.3837227 L12.1302705,20.9354045 L22.1308851,20.9354045 L22.6008576,20.1448477 L23.0699996,20.9354045 L32.960179,20.9354045 L34.4888349,18.3837227 Z M20.9650878,22.8972795 L13.2993892,22.8972795 L17.064981,29.220075 L17.2077995,29.220075 L20.9650878,22.8972795 Z M31.7835873,22.8972795 L24.2366273,22.8972795 L27.9939157,29.220075 L31.7835873,22.8972795 Z M33.1071492,22.8972795 L29.3415574,29.220075 L39.0648385,29.220075 L42.8412247,22.8972795 L33.1071492,22.8972795 Z M44.17309,22.8972795 L40.4124803,29.220075 L49.9207032,29.220075 L53.6705185,22.8972795 L44.17309,22.8972795 Z M45.3397176,20.9354045 L54.8338248,20.9354045 L56.3467043,18.3837227 L46.8567488,18.3837227 L45.3397176,20.9354045 Z M48.0242068,16.4218477 L57.5108409,16.4218477 L59.0237203,13.8709955 L38.4819398,13.8709955 L36.9624177,16.4218477 L46.7089482,16.4218477 L46.718082,16.4060864 L48.0242068,16.4218477 L48.0242068,16.4218477 Z M50.7444005,11.9082909 L60.187857,11.9082909 L61.7007364,9.35743864 L52.2581103,9.35743864 L50.7444005,11.9082909 Z M53.5816722,4.84471136 L43.8567304,4.84471136 L42.3372083,7.39556364 L52.06215,7.39556364 L53.5816722,4.84471136 Z M40.0164081,4.84471136 L27.037364,4.84471136 C26.8480465,5.46604091 26.7450844,6.12552955 26.7450844,6.809075 C26.7450844,7.00816591 26.7666732,7.20062045 26.7841103,7.39556364 L40.2704921,7.39556364 C40.2879293,7.20062045 40.3086878,7.00650682 40.3086878,6.809075 C40.3086878,6.12552955 40.2048953,5.46604091 40.0164081,4.84471136 L40.0164081,4.84471136 Z M14.981658,7.39556364 L24.7198852,7.39556364 C24.1851462,6.498825 23.6703354,5.63526818 23.1995327,4.84471136 L13.4696089,4.84471136 C13.9404117,5.63775682 14.4527314,6.50214318 14.981658,7.39556364 L14.981658,7.39556364 Z M17.651201,11.9082909 L27.4118473,11.9082909 C26.9169647,11.079575 26.4029843,10.2176773 25.8898342,9.35743864 L16.1433036,9.35743864 C16.6564537,10.2251432 17.1671128,11.0887 17.651201,11.9082909 L17.651201,11.9082909 Z M20.3024765,16.4218477 L30.1079612,16.4218477 C29.6919609,15.7258591 29.167186,14.8498591 28.583457,13.8709955 L18.8078646,13.8709955 C19.4314499,14.9294955 19.9553944,15.8237455 20.3024765,16.4218477 L20.3024765,16.4218477 Z M41.16892,9.35743864 L39.6502282,11.9082909 L49.3743395,11.9082909 L50.8938617,9.35743864 L41.16892,9.35743864 Z M39.5049187,10.0152682 C39.6161842,9.80456364 39.7141643,9.583075 39.8055017,9.35743864 L27.244949,9.35743864 C27.3603663,9.64114318 27.49156,9.91572273 27.6426819,10.1786886 L28.6457325,11.9082909 L38.3698439,11.9082909 L39.5049187,10.0152682 Z M45.5365082,18.3837227 L35.7941293,18.3837227 L34.2754375,20.9354045 L44.0128344,20.9354045 L45.5365082,18.3837227 Z M31.2613034,16.4218477 L35.6654266,16.4218477 L37.1940825,13.8709955 L29.782468,13.8709955 L31.2613034,16.4218477 Z M53.4222469,7.39556364 L62.8640427,7.39556364 L64.3769221,4.84471136 L54.936787,4.84471136 L53.4222469,7.39556364 Z" id="Fill-27" stroke="none" fill="#C1A15D" fill-rule="evenodd"></path>
</svg>