
<svg width="40px" height="40px" viewBox="33 181 40 40" version="1.1" xmlns="http://www.w3.org/2000/svg" xmlns:xlink="http://www.w3.org/1999/xlink">
    <!-- Generator: Sketch 3.7 (28169) - http://www.bohemiancoding.com/sketch -->
    <desc>Created with Sketch.</desc>
    <defs></defs>
    <g id="Group-2" stroke="none" stroke-width="1" fill="none" fill-rule="evenodd" transform="translate(33.000000, 181.000000)" opacity="0.896047108">
        <path d="M39.3603721,39.7967562 L39.3603733,0.924583741 L39.3603733,39.7967562 L0.83632448,39.7967562 L39.3603721,39.7967562 Z M30.5979645,13.4911629 C30.609356,13.7267994 30.6122039,13.9624358 30.6122039,14.192325 C30.6122039,21.3763622 25.1983841,29.6552468 15.2934576,29.6552468 C12.2519218,29.6552468 9.42112915,28.7586789 7.04030151,27.2126741 C7.45893986,27.2643992 7.88896973,27.2845145 8.32469537,27.2845145 C10.847917,27.2845145 13.1689392,26.4195564 15.0115175,24.95976 C12.6563208,24.9137822 10.6685006,23.3447884 9.9821615,21.1895773 C10.3096677,21.2499232 10.6457175,21.2844065 10.9931589,21.2844065 C11.4829942,21.2844065 11.9614381,21.2183134 12.4114031,21.094748 C9.94798694,20.594739 8.09116921,18.3992972 8.09116921,15.7670659 L8.09116921,15.7009728 C8.8173786,16.1061525 9.64895954,16.3532834 10.5318023,16.3820195 C9.08507931,15.4049905 8.13673529,13.7440411 8.13673529,11.8560761 C8.13673529,10.8618053 8.40158812,9.92500685 8.86579256,9.12326829 C11.5228646,12.4106837 15.4871134,14.5716421 19.9639807,14.8044049 C19.8700007,14.4049725 19.8244346,13.9911719 19.8244346,13.5630033 C19.8244346,10.565823 22.2337411,8.12899753 25.2097756,8.12899753 C26.7561744,8.12899753 28.1573314,8.78992896 29.1398499,9.84741925 C30.3672862,9.60028836 31.5178297,9.15200444 32.5573059,8.52843001 C32.1557548,9.79569418 31.3042387,10.8618053 30.1907176,11.5371048 C31.2814557,11.4020449 32.318084,11.1118098 33.2835153,10.677894 C32.5630016,11.766994 31.6488322,12.7267814 30.5979645,13.4911629 Z" id="Combined-Shape" fill="#606060"></path>
    </g>
</svg>