<?xml version="1.0" encoding="UTF-8" standalone="no"?>
<svg width="19px" height="16px" viewBox="0 0 19 16" version="1.1" xmlns="http://www.w3.org/2000/svg" xmlns:xlink="http://www.w3.org/1999/xlink">
    <!-- Generator: Sketch 3.7 (28169) - http://www.bohemiancoding.com/sketch -->
    <title>Combined Shape</title>
    <desc>Created with Sketch.</desc>
    <defs></defs>
    <g id="Symbols" stroke="none" stroke-width="1" fill="none" fill-rule="evenodd">
        <g id="Footer" transform="translate(-413.000000, -4.000000)" fill="#606060">
            <g id="Content">
                <g id="Social-Media" transform="translate(355.000000, 0.000000)">
                    <path d="M80.6153838,26.6167208 L80.6153846,0 L80.6153846,26.6167208 L54.1538462,26.6167208 L80.6153838,26.6167208 Z M74.5966294,8.60464205 C74.6044541,8.76598803 74.6064103,8.92733401 74.6064103,9.08474472 C74.6064103,14.0038295 70.8877461,19.6725829 64.0842142,19.6725829 C61.9950331,19.6725829 60.0506079,19.0586811 58.4152564,18.0000941 C58.7028122,18.0355115 58.9981927,18.0492849 59.2974855,18.0492849 C61.0306452,18.0492849 62.6249173,17.4570271 63.8905542,16.4574691 C62.2728081,16.4259869 60.9074069,15.3516588 60.4359719,13.8759333 C60.6609305,13.9172537 60.8917577,13.9408653 61.1304094,13.9408653 C61.4668693,13.9408653 61.7955045,13.8956097 62.1045782,13.8110014 C60.4124979,13.4686331 59.1370802,11.9653608 59.1370802,10.1630081 L59.1370802,10.1177525 C59.6359016,10.3951889 60.2071009,10.5644054 60.8135112,10.5840818 C59.8197808,9.91508624 59.1683788,8.77779383 59.1683788,7.48505834 C59.1683788,6.804257 59.3503019,6.16280834 59.6691563,5.61383847 C61.4942556,7.86481169 64.2172333,9.3444724 67.2923201,9.50385075 C67.2277667,9.23034963 67.1964682,8.94701035 67.1964682,8.65383289 C67.1964682,6.60159071 68.8513813,4.93303713 70.8955707,4.93303713 C71.9577667,4.93303713 72.9201985,5.38559294 73.5950744,6.10968222 C74.4381803,5.94046571 75.2284698,5.63351481 75.942469,5.20653825 C75.6666501,6.07426481 75.0817577,6.804257 74.3168983,7.26665097 C75.0661084,7.17417218 75.7781514,6.97544115 76.4412903,6.67832843 C75.9463813,7.42406169 75.3184533,8.08125142 74.5966294,8.60464205 Z" id="Combined-Shape"></path>
                </g>
            </g>
        </g>
    </g>
</svg>